<?xml version="1.0" encoding="UTF-8" standalone="no"?>
<!DOCTYPE svg PUBLIC "-//W3C//DTD SVG 1.1//EN" "http://www.w3.org/Graphics/SVG/1.1/DTD/svg11.dtd">
<svg width="100%" height="100%" viewBox="0 0 40 40" version="1.1" xmlns="http://www.w3.org/2000/svg" xmlns:xlink="http://www.w3.org/1999/xlink" xml:space="preserve" xmlns:serif="http://www.serif.com/" style="fill-rule:evenodd;clip-rule:evenodd;stroke-linejoin:round;stroke-miterlimit:2;">
    <path d="M39.3,8.5C38.8,4.4 35.5,1.1 31.4,0.7C23.9,-0.1 16.1,-0.1 8.6,0.7C4.5,1.1 1.2,4.3 0.7,8.5C-0.2,16.2 -0.2,23.9 0.7,31.5C1.2,35.6 4.5,38.9 8.6,39.3C16.1,40.1 23.9,40.1 31.4,39.3C35.5,38.8 38.9,35.6 39.3,31.5C40.2,23.9 40.2,16.1 39.3,8.5Z" style="fill:rgb(45,45,45);"/>
    <g transform="matrix(2.33168,0,0,2.33168,-0.763646,-0.751976)">
        <path d="M3.62,11.78L6.45,11.78L6.94,10.86L10.8,10.86L11.29,11.78L14.19,11.78L10.88,6.02L6.95,6.02L3.64,11.78L3.62,11.78ZM7.65,9.52L8.87,7.24L10.07,9.52L7.64,9.52L7.65,9.52Z" style="fill:white;fill-rule:nonzero;"/>
        <path d="M13.23,6.02L13.21,6.02C12.685,6.02 12.26,6.445 12.26,6.97L12.26,6.99C12.26,7.515 12.685,7.94 13.21,7.94L13.23,7.94C13.755,7.94 14.18,7.515 14.18,6.99L14.18,6.97C14.18,6.445 13.755,6.02 13.23,6.02Z" style="fill:white;fill-rule:nonzero;"/>
    </g>
</svg>
